<svg xmlns="http://www.w3.org/2000/svg" width="21" height="20" viewBox="0 0 21 20" fill="none">
<path d="M7.33398 8C8.99084 8 10.334 6.65685 10.334 5C10.334 3.34315 8.99084 2 7.33398 2C5.67713 2 4.33398 3.34315 4.33398 5C4.33398 6.65685 5.67713 8 7.33398 8Z" fill="#6E727F"/>
<path d="M14.834 9C16.2147 9 17.334 7.88071 17.334 6.5C17.334 5.11929 16.2147 4 14.834 4C13.4533 4 12.334 5.11929 12.334 6.5C12.334 7.88071 13.4533 9 14.834 9Z" fill="#6E727F"/>
<path d="M1.94926 16.428C1.55196 16.1736 1.32183 15.721 1.38003 15.2529C1.74814 12.292 4.27342 10 7.33388 10C10.3943 10 12.9196 12.2914 13.2877 15.2522C13.3459 15.7203 13.1158 16.1729 12.7185 16.4273C11.1642 17.4225 9.31642 18 7.33388 18C5.35136 18 3.50357 17.4231 1.94926 16.428Z" fill="#6E727F"/>
<path d="M14.834 16C14.7987 16 14.7635 15.9998 14.7283 15.9993C14.7971 15.7025 14.8162 15.3885 14.7762 15.0671C14.6008 13.6562 14.0341 12.367 13.188 11.3116C13.6986 11.1105 14.2548 11 14.8368 11C16.7765 11 18.4296 12.2273 19.0619 13.9478C19.1978 14.3176 19.0385 14.7241 18.7011 14.9275C17.5719 15.6083 16.2487 16 14.834 16Z" fill="#6E727F"/>
</svg>