<?xml version="1.0" encoding="UTF-8" standalone="no" ?>
<!DOCTYPE svg PUBLIC "-//W3C//DTD SVG 1.1//EN" "http://www.w3.org/Graphics/SVG/1.1/DTD/svg11.dtd">
<svg xmlns="http://www.w3.org/2000/svg" xmlns:xlink="http://www.w3.org/1999/xlink" version="1.1" width="1080" height="1080" viewBox="0 0 1080 1080" xml:space="preserve">
<desc>Created with Fabric.js 5.2.4</desc>
<defs>
</defs>
<rect x="0" y="0" width="100%" height="100%" fill="transparent"></rect>
<g transform="matrix(1 0 0 1 540 540)" id="b669ded2-8e7b-4e63-a186-2fefa39c5324"  >
<rect style="stroke: none; stroke-width: 1; stroke-dasharray: none; stroke-linecap: butt; stroke-dashoffset: 0; stroke-linejoin: miter; stroke-miterlimit: 4; fill: rgb(255,255,255); fill-rule: nonzero; opacity: 1; visibility: hidden;" vector-effect="non-scaling-stroke"  x="-540" y="-540" rx="0" ry="0" width="1080" height="1080" />
</g>
<g transform="matrix(1 0 0 1 540 540)" id="ffc333e3-c3f8-442d-b2e3-7807496c62db"  >
</g>
<g transform="matrix(1 0 0 1 863.16 507.08)"  >
<path style="stroke: none; stroke-width: 1; stroke-dasharray: none; stroke-linecap: butt; stroke-dashoffset: 0; stroke-linejoin: miter; stroke-miterlimit: 4; fill: rgb(0,0,0); fill-rule: nonzero; opacity: 1;" vector-effect="non-scaling-stroke"  transform=" translate(-806.89, -159.08)" d="M 773.584351 195.355103 C 767.842651 188.679138 765.919922 180.993622 765.855225 172.833481 C 765.710205 154.511627 765.795044 136.187943 765.799561 117.865005 C 765.799805 116.869072 765.818054 115.853493 766.00415 114.880753 C 766.713318 111.172676 768.830139 108.855125 772.749512 108.752419 C 776.891663 108.643867 779.479675 110.874916 779.938171 114.873894 C 780.372131 118.659073 780.212341 122.518578 780.217896 126.345535 C 780.240173 141.670135 780.191284 156.994873 780.235107 172.319382 C 780.267639 183.718582 785.5979 191.207748 796.501526 194.67569 C 806.146484 197.743301 815.540894 197.217056 824.215881 191.432724 C 830.512817 187.233978 833.663574 181.290848 833.676331 173.73793 C 833.70697 155.581604 833.690491 137.425201 833.702026 119.268822 C 833.703003 117.771065 833.605103 116.246231 833.84259 114.780891 C 834.458923 110.978203 836.815125 108.845673 840.64917 108.762405 C 844.512695 108.678497 846.724243 110.601616 847.434692 114.586937 C 848.148071 118.588959 847.66925 122.568138 847.716431 126.542107 C 847.911987 143.021439 848.388733 159.506042 847.443298 175.9823 C 846.583191 190.970963 838.564514 200.659073 825.023071 206.1129 C 807.592468 213.133118 786.319031 208.699936 773.584351 195.355103 z" stroke-linecap="round" />
</g>
<g transform="matrix(1 0 0 1 356.42 506.04)"  >
<path style="stroke: none; stroke-width: 1; stroke-dasharray: none; stroke-linecap: butt; stroke-dashoffset: 0; stroke-linejoin: miter; stroke-miterlimit: 4; fill: rgb(0,0,0); fill-rule: nonzero; opacity: 1;" vector-effect="non-scaling-stroke"  transform=" translate(-300.15, -158.04)" d="M 316.853455 190.898621 C 325.045044 182.76651 323.984131 172.881927 314.644531 166.685349 C 308.535187 162.631958 301.431 162.414154 294.571198 161.386063 C 279.70459 159.15799 269.512604 150.011658 267.223724 136.322906 C 266.081299 129.490219 268.105927 123.414146 272.618317 118.290268 C 284.244385 105.088745 319.541351 100.818474 332.761322 123.315475 C 334.03186 125.477615 335.44809 127.611351 334.840637 130.286362 C 334.277954 132.764236 332.707428 134.504745 330.223877 135.040176 C 326.684814 135.803207 323.968689 134.151886 322.140106 131.307404 C 318.312683 125.353645 313.118256 121.619408 306.050323 120.62822 C 300.506989 119.850845 295.097351 120.414131 289.839874 122.322647 C 285.136353 124.030075 281.771027 126.914314 281.197174 132.253479 C 280.585693 137.943024 282.682434 142.281693 287.424225 145.480408 C 293.215332 149.386948 299.998474 149.488846 306.508087 150.626556 C 312.598816 151.69104 318.539429 153.022095 323.882294 156.426971 C 333.298248 162.427521 337.044281 171.190399 336.225098 181.950516 C 335.404877 192.723907 329.656189 200.49884 319.750031 204.488113 C 302.96991 211.24559 286.881409 210.187576 272.240631 198.600266 C 268.902679 195.95845 266.532776 192.579727 264.757629 188.743546 C 263.503326 186.032944 263.589905 183.50679 265.98819 181.504257 C 268.380554 179.506699 271.047211 179.143234 273.877136 180.708893 C 275.375793 181.538025 276.695343 182.615555 277.458923 184.104126 C 283.492828 195.866974 305.511292 199.516479 316.853455 190.898621 z" stroke-linecap="round" />
</g>
<g transform="matrix(1 0 0 1 955.31 534.77)"  >
<path style="stroke: none; stroke-width: 1; stroke-dasharray: none; stroke-linecap: butt; stroke-dashoffset: 0; stroke-linejoin: miter; stroke-miterlimit: 4; fill: rgb(0,0,0); fill-rule: nonzero; opacity: 1;" vector-effect="non-scaling-stroke"  transform=" translate(-899.04, -186.77)" d="M 877.058838 145.005081 C 896.997314 129.077087 926.5625 139.090988 932.603149 162.093704 C 936.183411 175.727173 933.931824 188.285904 923.872498 198.672501 C 913.288391 209.600876 895.488159 210.735153 882.629272 201.658859 C 881.458069 200.832214 880.629578 199.387878 878.210754 199.382065 C 878.210754 207.997635 878.249207 216.584854 878.183838 225.171295 C 878.16748 227.317719 878.087402 229.530869 877.559143 231.590912 C 876.702332 234.932327 874.249451 236.424026 870.812622 236.291779 C 867.565125 236.166809 865.521484 234.500122 864.714111 231.390518 C 864.381104 230.107666 864.083374 228.764023 864.095276 227.450974 C 864.272949 207.800507 863.221252 188.13533 864.639343 168.501053 C 865.322571 159.041977 869.639282 151.376694 877.058838 145.005081 M 908.489807 193.171844 C 910.111511 192.019333 911.858765 191.007477 913.334412 189.691208 C 922.015137 181.947708 923.237 167.866333 916.122437 158.4216 C 909.39978 149.496948 897.163025 147.05513 888.168762 152.84346 C 878.264526 159.217453 874.759888 172.209854 879.983276 183.188583 C 884.947266 193.621994 895.92334 197.693909 908.489807 193.171844 z" stroke-linecap="round" />
</g>
<g transform="matrix(1 0 0 1 505.69 505.97)"  >
<path style="stroke: none; stroke-width: 1; stroke-dasharray: none; stroke-linecap: butt; stroke-dashoffset: 0; stroke-linejoin: miter; stroke-miterlimit: 4; fill: rgb(0,0,0); fill-rule: nonzero; opacity: 1;" vector-effect="non-scaling-stroke"  transform=" translate(-449.41, -157.97)" d="M 430.340027 173.058777 C 430.341187 182.048523 430.389862 190.548431 430.325684 199.04747 C 430.286926 204.184402 427.709839 207.205521 423.583679 207.223358 C 419.467163 207.24115 416.740692 204.200821 416.718262 199.10788 C 416.641327 181.633453 416.671997 164.158554 416.666748 146.683823 C 416.663818 136.890564 416.637634 127.09713 416.68634 117.3041 C 416.714691 111.602303 419.011658 108.758286 423.435608 108.716789 C 427.935699 108.674576 430.293365 111.488869 430.321136 117.126846 C 430.36438 125.89846 430.33255 134.670456 430.33255 144.235809 C 437.949463 139.434982 445.292419 136.978546 453.60849 137.509827 C 463.513641 138.142639 471.349457 142.00705 476.809265 150.427139 C 481.079254 157.012329 481.774139 164.500565 482.022552 171.992065 C 482.298492 180.315445 482.112701 188.656052 482.026001 196.988083 C 482.007141 198.797882 481.754211 200.659912 481.258881 202.398071 C 480.386719 205.458572 478.129242 207.124496 474.987335 207.180435 C 471.814209 207.236908 469.679596 205.55423 468.618958 202.531006 C 467.8862 200.442398 467.873322 198.284897 467.864502 196.112823 C 467.825867 186.614044 467.912384 177.111633 467.672455 167.61763 C 467.393036 156.562546 459.839386 149.829559 448.375427 150.078308 C 436.680206 150.332077 430.416107 156.581482 430.345856 168.069061 C 430.33667 169.568848 430.341614 171.068741 430.340027 173.058777 z" stroke-linecap="round" />
</g>
<g transform="matrix(1 0 0 1 689.4 520.42)"  >
<path style="stroke: none; stroke-width: 1; stroke-dasharray: none; stroke-linecap: butt; stroke-dashoffset: 0; stroke-linejoin: miter; stroke-miterlimit: 4; fill: rgb(0,0,0); fill-rule: nonzero; opacity: 1;" vector-effect="non-scaling-stroke"  transform=" translate(-633.13, -172.42)" d="M 611.547729 144.468079 C 623.661743 135.8172 636.451294 134.96994 649.126465 141.208435 C 662.326233 147.705032 667.929565 159.509338 668.193481 173.914413 C 668.34906 182.406204 668.315063 190.907349 668.09967 199.397507 C 667.998474 203.388092 666.159973 206.629929 661.754761 207.130066 C 657.540771 207.608521 655.342224 205.097839 654.409546 201.216888 C 654.259033 200.590775 653.887512 200.017746 653.329407 198.779526 C 643.957642 206.523682 633.4599 209.59906 621.735657 206.515396 C 613.988281 204.477661 608.112122 199.64621 603.852539 192.931458 C 593.744568 176.997421 596.877441 156.803207 611.547729 144.468079 M 653.664001 165.988632 C 650.097473 155.021118 640.627197 148.271408 631.017761 149.847916 C 614.618347 152.538391 606.315186 170.037567 614.559875 184.533463 C 618.762512 191.922562 627.370972 196.395218 634.9776 195.141846 C 649.403076 192.764908 657.069092 181.229263 653.664001 165.988632 z" stroke-linecap="round" />
</g>
<g transform="matrix(1 0 0 1 583.5 520.57)"  >
<path style="stroke: none; stroke-width: 1; stroke-dasharray: none; stroke-linecap: butt; stroke-dashoffset: 0; stroke-linejoin: miter; stroke-miterlimit: 4; fill: rgb(0,0,0); fill-rule: nonzero; opacity: 1;" vector-effect="non-scaling-stroke"  transform=" translate(-527.23, -172.57)" d="M 529.547546 137.534668 C 539.548096 136.749817 546.691284 141.727264 552.979492 147.920715 C 560.442322 155.27121 562.695496 164.746994 562.252747 174.950928 C 561.408752 194.402222 545.413452 208.733826 526.090088 207.623245 C 512.577515 206.846649 501.657471 201.572693 496.041138 188.862717 C 490.326385 175.930038 490.542511 162.783096 499.061707 150.890747 C 506.342529 140.72702 516.837769 136.861832 529.547546 137.534668 M 535.22644 151.158249 C 532.048889 150.262177 528.912231 149.198257 525.506653 149.74202 C 513.115601 151.720566 507.213074 158.229874 505.776794 171.570709 C 504.903168 179.685562 509.776398 188.874878 517.034973 192.800049 C 524.52771 196.851852 534.183228 195.709396 540.911011 190.667862 C 552.799805 181.758896 551.346558 157.11377 535.22644 151.158249 z" stroke-linecap="round" />
</g>
<g transform="matrix(1 0 0 1 430.66 520.36)"  >
<path style="stroke: none; stroke-width: 1; stroke-dasharray: none; stroke-linecap: butt; stroke-dashoffset: 0; stroke-linejoin: miter; stroke-miterlimit: 4; fill: rgb(0,0,0); fill-rule: nonzero; opacity: 1;" vector-effect="non-scaling-stroke"  transform=" translate(-374.39, -172.36)" d="M 383.242004 207.362396 C 364.139496 209.274429 348.263184 197.897232 344.901428 180.207397 C 341.224365 160.858215 350.91571 143.463562 368.757843 138.592712 C 381.089508 135.226212 392.429016 137.612503 401.826965 146.92778 C 404.688293 149.763977 405.861267 152.857407 403.013123 156.135056 C 400.110504 159.475357 396.742157 158.660995 393.749786 156.067154 C 388.34375 151.381104 382.416962 148.682465 375.033752 150.040665 C 364.474823 151.983017 357.042267 161.172836 357.390411 172.109451 C 357.812042 185.353302 364.6875 193.366913 377.589569 195.189499 C 382.10556 195.827438 386.490662 194.662201 390.528107 192.454697 C 391.842377 191.73613 393.060669 190.785156 394.444427 190.262177 C 397.497833 189.108215 400.525543 189.201706 402.428009 192.235565 C 404.281372 195.191177 403.471161 197.951767 400.889893 200.244553 C 395.969604 204.614944 390.123932 206.713943 383.242004 207.362396 z" stroke-linecap="round" />
</g>
<g transform="matrix(1 0 0 1 642.16 505.9)"  >
<path style="stroke: none; stroke-width: 1; stroke-dasharray: none; stroke-linecap: butt; stroke-dashoffset: 0; stroke-linejoin: miter; stroke-miterlimit: 4; fill: rgb(0,0,0); fill-rule: nonzero; opacity: 1;" vector-effect="non-scaling-stroke"  transform=" translate(-585.89, -157.91)" d="M 572.094238 112.777908 C 574.187073 108.920525 577.235291 107.904053 580.758972 109.125664 C 584.462219 110.409538 585.262695 113.683067 585.261292 117.243401 C 585.252686 138.564102 585.242493 159.884827 585.275513 181.205475 C 585.279358 183.684235 585.025391 186.195999 585.915222 188.624405 C 587.034302 191.678329 588.701355 193.811478 592.384216 193.747192 C 596.571411 193.674103 599.534546 195.529678 599.972412 199.984726 C 600.32074 203.528885 596.981018 206.805298 592.394531 207.122208 C 585.343201 207.609421 579.772278 204.662674 575.844177 198.805481 C 573.38678 195.14122 571.809021 190.986877 571.79657 186.621231 C 571.726868 162.142609 571.86438 137.663391 572.094238 112.777908 z" stroke-linecap="round" />
</g>
<g transform="matrix(1 0 0 1 760.25 520.19)"  >
<path style="stroke: none; stroke-width: 1; stroke-dasharray: none; stroke-linecap: butt; stroke-dashoffset: 0; stroke-linejoin: miter; stroke-miterlimit: 4; fill: rgb(0,0,0); fill-rule: nonzero; opacity: 1;" vector-effect="non-scaling-stroke"  transform=" translate(-703.98, -172.19)" d="M 696.386292 155.491379 C 693.973877 158.518417 693.305481 161.684433 693.320068 165.125351 C 693.367432 176.285141 693.365784 187.445465 693.3125 198.60524 C 693.284241 204.521606 691.154602 207.20575 686.674561 207.257568 C 682.195801 207.309402 679.760803 204.538086 679.73468 198.810898 C 679.654846 181.321686 679.718384 163.831863 679.683289 146.342361 C 679.674622 142.037979 681.043579 138.576767 685.693665 137.936386 C 690.266907 137.30661 692.888306 139.824799 693.557922 144.781509 C 701.475952 138.671158 710.000977 135.801758 719.720398 137.708969 C 721.017151 137.96344 722.316467 138.31514 723.541016 138.805634 C 726.804688 140.112961 729.050232 142.352448 728.017517 146.081818 C 726.991516 149.787201 723.8797 150.727036 720.448425 150.107285 C 715.307556 149.178757 710.238037 148.835464 705.13916 150.294113 C 701.875488 151.227753 698.887329 152.574417 696.386292 155.491379 z" stroke-linecap="round" />
</g>
<g transform="matrix(1.52 0 0 1.52 244.74 462.58)"  >
<g style="" vector-effect="non-scaling-stroke"   >
		<g transform="matrix(0.13 0 0 -0.13 0 -17.47)"  >
<path style="stroke: none; stroke-width: 1; stroke-dasharray: none; stroke-linecap: butt; stroke-dashoffset: 0; stroke-linejoin: miter; stroke-miterlimit: 4; fill: rgb(0,0,0); fill-rule: nonzero; opacity: 1;" vector-effect="non-scaling-stroke"  transform=" translate(-380, -449.01)" d="M 193 517 C 92 483 10 453 10 449 C 10 446 36 435 68 426 L 127 408 L 255 454 C 325 480 385 498 388 496 C 404 480 369 458 281 429 C 225 411 184 393 188 389 C 192 386 237 369 287 352 L 380 322 L 565 383 C 667 417 750 447 750 450 C 750 454 443 560 385 576 C 380 577 293 551 193 517 z" stroke-linecap="round" />
</g>
		<g transform="matrix(0.13 0 0 -0.13 -36.17 13.07)"  >
<path style="stroke: none; stroke-width: 1; stroke-dasharray: none; stroke-linecap: butt; stroke-dashoffset: 0; stroke-linejoin: miter; stroke-miterlimit: 4; fill: rgb(0,0,0); fill-rule: nonzero; opacity: 1;" vector-effect="non-scaling-stroke"  transform=" translate(-108.76, -220)" d="M 90 318 C 90 274 85 251 73 238 C 59 222 58 215 69 185 C 78 160 78 141 71 113 C 56 59 55 60 105 60 C 155 60 158 67 140 129 C 133 154 134 167 146 185 C 158 203 159 213 150 229 C 144 241 135 250 130 250 C 124 250 120 279 120 315 C 120 366 117 380 105 380 C 93 380 90 366 90 318 z" stroke-linecap="round" />
</g>
		<g transform="matrix(0.13 0 0 -0.13 0 8.46)"  >
<path style="stroke: none; stroke-width: 1; stroke-dasharray: none; stroke-linecap: butt; stroke-dashoffset: 0; stroke-linejoin: miter; stroke-miterlimit: 4; fill: rgb(0,0,0); fill-rule: nonzero; opacity: 1;" vector-effect="non-scaling-stroke"  transform=" translate(-380, -254.55)" d="M 190 288 C 190 212 202 197 276 174 C 366 147 504 163 551 206 C 566 219 570 237 570 288 C 570 335 567 351 558 348 C 551 345 508 331 463 316 L 380 288 L 298 316 C 252 331 209 345 203 348 C 193 351 190 335 190 288 z" stroke-linecap="round" />
</g>
</g>
</g>
<g transform="matrix(0.22 0 0 0.22 243.67 540)" id="68c46468-802a-49f9-86a1-bb7866b12db6"  >
<path style="stroke: rgb(0,0,0); stroke-width: 0; stroke-dasharray: none; stroke-linecap: butt; stroke-dashoffset: 0; stroke-linejoin: miter; stroke-miterlimit: 4; fill: rgb(0,0,0); fill-rule: nonzero; opacity: 1;" vector-effect="non-scaling-stroke"  transform=" translate(-260.25, -261.12)" d="M 190 511 C 144 496 105 472 74 438 C 20 381 5 343 5 260 C 5 177 20 139 74 82 C 127 25 175 5 260 5 C 317 5 344 10 375 27 C 422 52 470 101 496 150 C 522 199 522 321 496 370 C 470 419 422 468 375 492 C 332 514 231 525 190 511 z M 240 440 C 240 404 238 400 215 400 C 201 400 190 406 190 414 C 190 427 227 480 236 480 C 238 480 240 462 240 440 z M 330 414 C 330 406 320 400 305 400 C 282 400 280 404 280 443 L 281 485 L 305 457 C 319 442 330 422 330 414 z M 160 440 C 148 419 135 414 125 429 C 122 435 128 443 137 449 C 164 465 172 462 160 440 z M 381 449 C 392 444 398 435 395 429 C 385 414 372 418 360 440 C 348 463 353 465 381 449 z M 119 390 C 135 382 136 375 127 330 C 117 280 117 280 79 280 C 32 280 28 298 60 360 C 81 402 90 406 119 390 z M 460 360 C 492 298 488 280 441 280 C 403 280 403 280 393 330 C 384 373 385 382 399 390 C 427 407 439 401 460 360 z M 238 323 L 241 280 L 201 280 C 162 280 160 282 160 309 C 160 359 169 371 204 368 C 233 365 235 362 238 323 z M 354 354 C 357 345 360 325 360 309 C 360 282 358 280 320 280 C 280 280 280 280 280 318 C 280 339 283 360 287 363 C 300 376 348 370 354 354 z M 127 190 C 136 145 135 138 119 130 C 90 114 81 118 60 160 C 28 222 32 240 79 240 C 117 240 117 240 127 190 z M 238 198 C 235 159 232 155 206 152 C 172 148 160 162 160 208 C 160 239 161 240 201 240 L 241 240 L 238 198 z M 360 208 C 360 162 348 148 314 152 C 288 155 285 159 282 198 L 279 240 L 319 240 C 359 240 360 239 360 208 z M 480 220 C 480 193 443 120 429 120 C 423 120 411 124 401 130 C 385 138 384 146 391 182 C 395 206 399 228 400 233 C 400 237 418 240 440 240 C 474 240 480 237 480 220 z M 240 78 L 239 35 L 215 63 C 183 99 183 120 215 120 C 238 120 240 116 240 78 z M 330 106 C 330 98 319 78 305 63 L 281 35 L 280 78 C 280 116 282 120 305 120 C 320 120 330 114 330 106 z M 160 80 C 172 57 167 55 139 71 C 128 76 122 85 125 91 C 135 106 148 102 160 80 z M 395 91 C 398 85 392 76 381 71 C 353 55 348 57 360 80 C 372 102 385 106 395 91 z" stroke-linecap="round" />
</g>
</svg>