<?xml version="1.0" encoding="UTF-8" standalone="no" ?>
<!DOCTYPE svg PUBLIC "-//W3C//DTD SVG 1.1//EN" "http://www.w3.org/Graphics/SVG/1.1/DTD/svg11.dtd">
<svg xmlns="http://www.w3.org/2000/svg" xmlns:xlink="http://www.w3.org/1999/xlink" version="1.1" width="1080" height="1080" viewBox="0 0 1080 1080" xml:space="preserve">
<desc>Created with Fabric.js 5.2.4</desc>
<defs>
</defs>
<g transform="matrix(1 0 0 1 540 540)" id="b669ded2-8e7b-4e63-a186-2fefa39c5324"  >
<rect style="stroke: none; stroke-width: 1; stroke-dasharray: none; stroke-linecap: butt; stroke-dashoffset: 0; stroke-linejoin: miter; stroke-miterlimit: 4; fill: rgb(255,255,255); fill-rule: nonzero; opacity: 1; visibility: hidden;" vector-effect="non-scaling-stroke"  x="-540" y="-540" rx="0" ry="0" width="1080" height="1080" />
</g>
<g transform="matrix(1 0 0 1 540 540)" id="ffc333e3-c3f8-442d-b2e3-7807496c62db"  >
</g>
<g transform="matrix(1 0 0 1 863.16 507.08)"  >
<path style="stroke: none; stroke-width: 1; stroke-dasharray: none; stroke-linecap: butt; stroke-dashoffset: 0; stroke-linejoin: miter; stroke-miterlimit: 4; fill: rgb(0,0,0); fill-rule: nonzero; opacity: 1;" vector-effect="non-scaling-stroke"  transform=" translate(-806.89, -159.08)" d="M 773.584351 195.355103 C 767.842651 188.679138 765.919922 180.993622 765.855225 172.833481 C 765.710205 154.511627 765.795044 136.187943 765.799561 117.865005 C 765.799805 116.869072 765.818054 115.853493 766.00415 114.880753 C 766.713318 111.172676 768.830139 108.855125 772.749512 108.752419 C 776.891663 108.643867 779.479675 110.874916 779.938171 114.873894 C 780.372131 118.659073 780.212341 122.518578 780.217896 126.345535 C 780.240173 141.670135 780.191284 156.994873 780.235107 172.319382 C 780.267639 183.718582 785.5979 191.207748 796.501526 194.67569 C 806.146484 197.743301 815.540894 197.217056 824.215881 191.432724 C 830.512817 187.233978 833.663574 181.290848 833.676331 173.73793 C 833.70697 155.581604 833.690491 137.425201 833.702026 119.268822 C 833.703003 117.771065 833.605103 116.246231 833.84259 114.780891 C 834.458923 110.978203 836.815125 108.845673 840.64917 108.762405 C 844.512695 108.678497 846.724243 110.601616 847.434692 114.586937 C 848.148071 118.588959 847.66925 122.568138 847.716431 126.542107 C 847.911987 143.021439 848.388733 159.506042 847.443298 175.9823 C 846.583191 190.970963 838.564514 200.659073 825.023071 206.1129 C 807.592468 213.133118 786.319031 208.699936 773.584351 195.355103 z" stroke-linecap="round" />
</g>
<g transform="matrix(1 0 0 1 356.42 506.04)"  >
<path style="stroke: none; stroke-width: 1; stroke-dasharray: none; stroke-linecap: butt; stroke-dashoffset: 0; stroke-linejoin: miter; stroke-miterlimit: 4; fill: rgb(0,0,0); fill-rule: nonzero; opacity: 1;" vector-effect="non-scaling-stroke"  transform=" translate(-300.15, -158.04)" d="M 316.853455 190.898621 C 325.045044 182.76651 323.984131 172.881927 314.644531 166.685349 C 308.535187 162.631958 301.431 162.414154 294.571198 161.386063 C 279.70459 159.15799 269.512604 150.011658 267.223724 136.322906 C 266.081299 129.490219 268.105927 123.414146 272.618317 118.290268 C 284.244385 105.088745 319.541351 100.818474 332.761322 123.315475 C 334.03186 125.477615 335.44809 127.611351 334.840637 130.286362 C 334.277954 132.764236 332.707428 134.504745 330.223877 135.040176 C 326.684814 135.803207 323.968689 134.151886 322.140106 131.307404 C 318.312683 125.353645 313.118256 121.619408 306.050323 120.62822 C 300.506989 119.850845 295.097351 120.414131 289.839874 122.322647 C 285.136353 124.030075 281.771027 126.914314 281.197174 132.253479 C 280.585693 137.943024 282.682434 142.281693 287.424225 145.480408 C 293.215332 149.386948 299.998474 149.488846 306.508087 150.626556 C 312.598816 151.69104 318.539429 153.022095 323.882294 156.426971 C 333.298248 162.427521 337.044281 171.190399 336.225098 181.950516 C 335.404877 192.723907 329.656189 200.49884 319.750031 204.488113 C 302.96991 211.24559 286.881409 210.187576 272.240631 198.600266 C 268.902679 195.95845 266.532776 192.579727 264.757629 188.743546 C 263.503326 186.032944 263.589905 183.50679 265.98819 181.504257 C 268.380554 179.506699 271.047211 179.143234 273.877136 180.708893 C 275.375793 181.538025 276.695343 182.615555 277.458923 184.104126 C 283.492828 195.866974 305.511292 199.516479 316.853455 190.898621 z" stroke-linecap="round" />
</g>
<g transform="matrix(1 0 0 1 955.31 534.77)"  >
<path style="stroke: none; stroke-width: 1; stroke-dasharray: none; stroke-linecap: butt; stroke-dashoffset: 0; stroke-linejoin: miter; stroke-miterlimit: 4; fill: rgb(0,0,0); fill-rule: nonzero; opacity: 1;" vector-effect="non-scaling-stroke"  transform=" translate(-899.04, -186.77)" d="M 877.058838 145.005081 C 896.997314 129.077087 926.5625 139.090988 932.603149 162.093704 C 936.183411 175.727173 933.931824 188.285904 923.872498 198.672501 C 913.288391 209.600876 895.488159 210.735153 882.629272 201.658859 C 881.458069 200.832214 880.629578 199.387878 878.210754 199.382065 C 878.210754 207.997635 878.249207 216.584854 878.183838 225.171295 C 878.16748 227.317719 878.087402 229.530869 877.559143 231.590912 C 876.702332 234.932327 874.249451 236.424026 870.812622 236.291779 C 867.565125 236.166809 865.521484 234.500122 864.714111 231.390518 C 864.381104 230.107666 864.083374 228.764023 864.095276 227.450974 C 864.272949 207.800507 863.221252 188.13533 864.639343 168.501053 C 865.322571 159.041977 869.639282 151.376694 877.058838 145.005081 M 908.489807 193.171844 C 910.111511 192.019333 911.858765 191.007477 913.334412 189.691208 C 922.015137 181.947708 923.237 167.866333 916.122437 158.4216 C 909.39978 149.496948 897.163025 147.05513 888.168762 152.84346 C 878.264526 159.217453 874.759888 172.209854 879.983276 183.188583 C 884.947266 193.621994 895.92334 197.693909 908.489807 193.171844 z" stroke-linecap="round" />
</g>
<g transform="matrix(1 0 0 1 505.69 505.97)"  >
<path style="stroke: none; stroke-width: 1; stroke-dasharray: none; stroke-linecap: butt; stroke-dashoffset: 0; stroke-linejoin: miter; stroke-miterlimit: 4; fill: rgb(0,0,0); fill-rule: nonzero; opacity: 1;" vector-effect="non-scaling-stroke"  transform=" translate(-449.41, -157.97)" d="M 430.340027 173.058777 C 430.341187 182.048523 430.389862 190.548431 430.325684 199.04747 C 430.286926 204.184402 427.709839 207.205521 423.583679 207.223358 C 419.467163 207.24115 416.740692 204.200821 416.718262 199.10788 C 416.641327 181.633453 416.671997 164.158554 416.666748 146.683823 C 416.663818 136.890564 416.637634 127.09713 416.68634 117.3041 C 416.714691 111.602303 419.011658 108.758286 423.435608 108.716789 C 427.935699 108.674576 430.293365 111.488869 430.321136 117.126846 C 430.36438 125.89846 430.33255 134.670456 430.33255 144.235809 C 437.949463 139.434982 445.292419 136.978546 453.60849 137.509827 C 463.513641 138.142639 471.349457 142.00705 476.809265 150.427139 C 481.079254 157.012329 481.774139 164.500565 482.022552 171.992065 C 482.298492 180.315445 482.112701 188.656052 482.026001 196.988083 C 482.007141 198.797882 481.754211 200.659912 481.258881 202.398071 C 480.386719 205.458572 478.129242 207.124496 474.987335 207.180435 C 471.814209 207.236908 469.679596 205.55423 468.618958 202.531006 C 467.8862 200.442398 467.873322 198.284897 467.864502 196.112823 C 467.825867 186.614044 467.912384 177.111633 467.672455 167.61763 C 467.393036 156.562546 459.839386 149.829559 448.375427 150.078308 C 436.680206 150.332077 430.416107 156.581482 430.345856 168.069061 C 430.33667 169.568848 430.341614 171.068741 430.340027 173.058777 z" stroke-linecap="round" />
</g>
<g transform="matrix(1 0 0 1 689.4 520.42)"  >
<path style="stroke: none; stroke-width: 1; stroke-dasharray: none; stroke-linecap: butt; stroke-dashoffset: 0; stroke-linejoin: miter; stroke-miterlimit: 4; fill: rgb(0,0,0); fill-rule: nonzero; opacity: 1;" vector-effect="non-scaling-stroke"  transform=" translate(-633.13, -172.42)" d="M 611.547729 144.468079 C 623.661743 135.8172 636.451294 134.96994 649.126465 141.208435 C 662.326233 147.705032 667.929565 159.509338 668.193481 173.914413 C 668.34906 182.406204 668.315063 190.907349 668.09967 199.397507 C 667.998474 203.388092 666.159973 206.629929 661.754761 207.130066 C 657.540771 207.608521 655.342224 205.097839 654.409546 201.216888 C 654.259033 200.590775 653.887512 200.017746 653.329407 198.779526 C 643.957642 206.523682 633.4599 209.59906 621.735657 206.515396 C 613.988281 204.477661 608.112122 199.64621 603.852539 192.931458 C 593.744568 176.997421 596.877441 156.803207 611.547729 144.468079 M 653.664001 165.988632 C 650.097473 155.021118 640.627197 148.271408 631.017761 149.847916 C 614.618347 152.538391 606.315186 170.037567 614.559875 184.533463 C 618.762512 191.922562 627.370972 196.395218 634.9776 195.141846 C 649.403076 192.764908 657.069092 181.229263 653.664001 165.988632 z" stroke-linecap="round" />
</g>
<g transform="matrix(1 0 0 1 583.5 520.57)"  >
<path style="stroke: none; stroke-width: 1; stroke-dasharray: none; stroke-linecap: butt; stroke-dashoffset: 0; stroke-linejoin: miter; stroke-miterlimit: 4; fill: rgb(0,0,0); fill-rule: nonzero; opacity: 1;" vector-effect="non-scaling-stroke"  transform=" translate(-527.23, -172.57)" d="M 529.547546 137.534668 C 539.548096 136.749817 546.691284 141.727264 552.979492 147.920715 C 560.442322 155.27121 562.695496 164.746994 562.252747 174.950928 C 561.408752 194.402222 545.413452 208.733826 526.090088 207.623245 C 512.577515 206.846649 501.657471 201.572693 496.041138 188.862717 C 490.326385 175.930038 490.542511 162.783096 499.061707 150.890747 C 506.342529 140.72702 516.837769 136.861832 529.547546 137.534668 M 535.22644 151.158249 C 532.048889 150.262177 528.912231 149.198257 525.506653 149.74202 C 513.115601 151.720566 507.213074 158.229874 505.776794 171.570709 C 504.903168 179.685562 509.776398 188.874878 517.034973 192.800049 C 524.52771 196.851852 534.183228 195.709396 540.911011 190.667862 C 552.799805 181.758896 551.346558 157.11377 535.22644 151.158249 z" stroke-linecap="round" />
</g>
<g transform="matrix(1 0 0 1 430.66 520.36)"  >
<path style="stroke: none; stroke-width: 1; stroke-dasharray: none; stroke-linecap: butt; stroke-dashoffset: 0; stroke-linejoin: miter; stroke-miterlimit: 4; fill: rgb(0,0,0); fill-rule: nonzero; opacity: 1;" vector-effect="non-scaling-stroke"  transform=" translate(-374.39, -172.36)" d="M 383.242004 207.362396 C 364.139496 209.274429 348.263184 197.897232 344.901428 180.207397 C 341.224365 160.858215 350.91571 143.463562 368.757843 138.592712 C 381.089508 135.226212 392.429016 137.612503 401.826965 146.92778 C 404.688293 149.763977 405.861267 152.857407 403.013123 156.135056 C 400.110504 159.475357 396.742157 158.660995 393.749786 156.067154 C 388.34375 151.381104 382.416962 148.682465 375.033752 150.040665 C 364.474823 151.983017 357.042267 161.172836 357.390411 172.109451 C 357.812042 185.353302 364.6875 193.366913 377.589569 195.189499 C 382.10556 195.827438 386.490662 194.662201 390.528107 192.454697 C 391.842377 191.73613 393.060669 190.785156 394.444427 190.262177 C 397.497833 189.108215 400.525543 189.201706 402.428009 192.235565 C 404.281372 195.191177 403.471161 197.951767 400.889893 200.244553 C 395.969604 204.614944 390.123932 206.713943 383.242004 207.362396 z" stroke-linecap="round" />
</g>
<g transform="matrix(1 0 0 1 642.16 505.9)"  >
<path style="stroke: none; stroke-width: 1; stroke-dasharray: none; stroke-linecap: butt; stroke-dashoffset: 0; stroke-linejoin: miter; stroke-miterlimit: 4; fill: rgb(0,0,0); fill-rule: nonzero; opacity: 1;" vector-effect="non-scaling-stroke"  transform=" translate(-585.89, -157.91)" d="M 572.094238 112.777908 C 574.187073 108.920525 577.235291 107.904053 580.758972 109.125664 C 584.462219 110.409538 585.262695 113.683067 585.261292 117.243401 C 585.252686 138.564102 585.242493 159.884827 585.275513 181.205475 C 585.279358 183.684235 585.025391 186.195999 585.915222 188.624405 C 587.034302 191.678329 588.701355 193.811478 592.384216 193.747192 C 596.571411 193.674103 599.534546 195.529678 599.972412 199.984726 C 600.32074 203.528885 596.981018 206.805298 592.394531 207.122208 C 585.343201 207.609421 579.772278 204.662674 575.844177 198.805481 C 573.38678 195.14122 571.809021 190.986877 571.79657 186.621231 C 571.726868 162.142609 571.86438 137.663391 572.094238 112.777908 z" stroke-linecap="round" />
</g>
<g transform="matrix(1 0 0 1 760.25 520.19)"  >
<path style="stroke: none; stroke-width: 1; stroke-dasharray: none; stroke-linecap: butt; stroke-dashoffset: 0; stroke-linejoin: miter; stroke-miterlimit: 4; fill: rgb(0,0,0); fill-rule: nonzero; opacity: 1;" vector-effect="non-scaling-stroke"  transform=" translate(-703.98, -172.19)" d="M 696.386292 155.491379 C 693.973877 158.518417 693.305481 161.684433 693.320068 165.125351 C 693.367432 176.285141 693.365784 187.445465 693.3125 198.60524 C 693.284241 204.521606 691.154602 207.20575 686.674561 207.257568 C 682.195801 207.309402 679.760803 204.538086 679.73468 198.810898 C 679.654846 181.321686 679.718384 163.831863 679.683289 146.342361 C 679.674622 142.037979 681.043579 138.576767 685.693665 137.936386 C 690.266907 137.30661 692.888306 139.824799 693.557922 144.781509 C 701.475952 138.671158 710.000977 135.801758 719.720398 137.708969 C 721.017151 137.96344 722.316467 138.31514 723.541016 138.805634 C 726.804688 140.112961 729.050232 142.352448 728.017517 146.081818 C 726.991516 149.787201 723.8797 150.727036 720.448425 150.107285 C 715.307556 149.178757 710.238037 148.835464 705.13916 150.294113 C 701.875488 151.227753 698.887329 152.574417 696.386292 155.491379 z" stroke-linecap="round" />
</g>
<g transform="matrix(1 0 0 1 594.1 618.84)"  >
<path style="stroke: none; stroke-width: 1; stroke-dasharray: none; stroke-linecap: butt; stroke-dashoffset: 0; stroke-linejoin: miter; stroke-miterlimit: 4; fill: rgb(0,0,0); fill-rule: nonzero; opacity: 1;" vector-effect="non-scaling-stroke"  transform=" translate(-537.83, -270.84)" d="M 542.557007 264.584503 C 546.249329 263.899628 544.194641 261.222595 544.635254 259.448456 C 545.080505 257.655762 544.097961 254.962601 547.203186 255.016006 C 550.135437 255.066422 549.780945 257.695801 549.810974 259.545776 C 549.932312 267.02533 549.895935 274.507843 549.876221 281.989136 C 549.86792 285.149933 549.041077 287.555817 545.186768 285.645752 C 543.867615 284.992035 543.041443 285.618652 541.949829 285.926453 C 535.777893 287.666748 530.999451 286.337982 528.036682 282.169922 C 525.002686 277.90155 524.991699 272.247833 528.009277 268.144897 C 531.409424 263.521851 535.428284 262.488922 542.557007 264.584503 M 544.545898 273.935699 C 543.414856 270.223511 541.280212 267.723785 537.035217 268.179901 C 533.928223 268.513702 531.825684 270.147919 531.278625 273.416443 C 530.539429 277.833344 532.424133 281.108978 536.169006 281.863586 C 540.882141 282.813324 543.659302 280.452454 544.545898 273.935699 z" stroke-linecap="round" />
</g>
<g transform="matrix(1 0 0 1 782.39 619.56)"  >
<path style="stroke: none; stroke-width: 1; stroke-dasharray: none; stroke-linecap: butt; stroke-dashoffset: 0; stroke-linejoin: miter; stroke-miterlimit: 4; fill: rgb(0,0,0); fill-rule: nonzero; opacity: 1;" vector-effect="non-scaling-stroke"  transform=" translate(-726.11, -271.56)" d="M 734.528381 281.936462 C 736.44574 282.456757 737.289062 283.328552 736.765442 284.95755 C 736.393921 286.113251 735.325806 286.292786 734.337402 286.300262 C 728.841858 286.341858 723.345886 286.332336 717.850037 286.322418 C 715.407471 286.318024 714.789429 284.738037 714.789368 282.671173 C 714.789124 275.176025 714.778442 267.680786 714.808716 260.18576 C 714.815002 258.63797 715.047363 256.891541 717.008667 256.857544 C 723.72821 256.740936 730.45105 256.812805 737.439636 256.812805 C 736.847107 260.338043 734.982971 261.075104 732.667175 261.13562 C 729.837158 261.209564 727.003052 261.271393 724.174194 261.200012 C 721.493286 261.132385 720.232666 262.137756 720.23645 264.99295 C 720.240112 267.810181 721.420776 268.925354 724.135742 268.826416 C 726.298035 268.747528 728.46698 268.777344 730.630798 268.83786 C 732.270508 268.883759 734.259277 268.685486 734.383179 271.069427 C 734.517883 273.660767 732.411743 273.255035 730.827332 273.328094 C 729.165283 273.404694 727.496155 273.367889 725.831177 273.331726 C 722.89093 273.267914 720.238403 273.044922 720.161194 277.464874 C 720.077637 282.245514 723.010071 281.862885 726.090942 281.830963 C 728.755005 281.803345 731.419983 281.854431 734.528381 281.936462 z" stroke-linecap="round" />
</g>
<g transform="matrix(1 0 0 1 563.73 619.53)"  >
<path style="stroke: none; stroke-width: 1; stroke-dasharray: none; stroke-linecap: butt; stroke-dashoffset: 0; stroke-linejoin: miter; stroke-miterlimit: 4; fill: rgb(0,0,0); fill-rule: nonzero; opacity: 1;" vector-effect="non-scaling-stroke"  transform=" translate(-507.46, -271.53)" d="M 510.032959 273.349182 C 509.24826 273.348694 508.915802 273.347748 508.583344 273.348877 C 501.443695 273.373291 501.443695 273.373352 502.126831 281.184814 C 505.915863 282.46756 509.914948 281.534668 513.817383 281.855652 C 515.662659 282.007477 518.327393 281.232178 518.318359 284.299988 C 518.309814 287.195007 515.738831 286.285004 514.126587 286.336395 C 509.975067 286.468719 505.80423 286.184845 501.664368 286.441711 C 497.617035 286.692902 496.513977 284.906525 496.609009 281.146759 C 496.805969 273.354523 496.668427 265.553864 496.668427 256.972015 C 503.02774 256.355682 509.58609 256.651276 516.133301 256.831482 C 517.22998 256.861633 517.959534 257.558624 517.950806 258.765137 C 517.94043 260.199432 517.01825 260.945923 515.763489 261.008728 C 512.612671 261.166412 509.447693 261.302032 506.299347 261.174957 C 503.080444 261.044983 501.864899 262.419495 501.791595 265.572388 C 501.713684 268.921783 503.829437 268.829926 506.078735 268.828613 C 508.073456 268.827423 510.070953 268.772461 512.061951 268.860596 C 513.666382 268.931641 515.796021 268.664612 515.942993 270.952393 C 516.128174 273.835876 513.66095 273.121552 511.980133 273.331909 C 511.48877 273.393402 510.983917 273.346771 510.032959 273.349182 z" stroke-linecap="round" />
</g>
<g transform="matrix(1 0 0 1 518.43 623.15)"  >
<path style="stroke: none; stroke-width: 1; stroke-dasharray: none; stroke-linecap: butt; stroke-dashoffset: 0; stroke-linejoin: miter; stroke-miterlimit: 4; fill: rgb(0,0,0); fill-rule: nonzero; opacity: 1;" vector-effect="non-scaling-stroke"  transform=" translate(-462.16, -275.16)" d="M 451.882629 280.628815 C 448.465576 269.955719 453.79715 262.684326 463.842316 263.619232 C 467.504974 263.960144 470.085236 265.855804 471.82901 268.888336 C 475.057068 274.502167 473.542389 277.149658 467.1922 277.204437 C 463.786774 277.233826 460.38089 277.209625 456.211548 277.209625 C 459.049042 282.640198 462.775452 282.286987 466.530609 281.29953 C 468.312531 280.830963 470.346771 279.493286 471.083221 282.065582 C 471.816315 284.62619 469.258179 285.372894 467.470062 286.001099 C 461.747894 288.011292 455.949677 286.047638 451.882629 280.628815 M 458.551788 272.706573 C 461.414062 272.660126 464.339935 273.209839 467.476837 272.095184 C 466.463226 268.841644 464.348877 268.075836 461.71524 268.180237 C 458.493958 268.307861 457.302917 269.708069 458.551788 272.706573 z" stroke-linecap="round" />
</g>
<g transform="matrix(1 0 0 1 934.2 623.06)"  >
<path style="stroke: none; stroke-width: 1; stroke-dasharray: none; stroke-linecap: butt; stroke-dashoffset: 0; stroke-linejoin: miter; stroke-miterlimit: 4; fill: rgb(0,0,0); fill-rule: nonzero; opacity: 1;" vector-effect="non-scaling-stroke"  transform=" translate(-877.93, -275.07)" d="M 887.642029 268.723755 C 890.541016 276.446503 890.059143 277.13324 882.473694 277.237671 C 879.354492 277.280609 876.187927 276.763153 872.22699 277.962006 C 874.738464 282.278595 878.251099 282.274048 881.979248 281.445526 C 883.817078 281.037079 886.129272 279.145721 887.018127 282.006134 C 887.881042 284.782867 885.009216 285.547913 883.05481 286.118958 C 875.161011 288.425323 867.712036 284.3797 866.744873 277.443878 C 865.904968 271.420868 868.110779 266.73172 872.856201 264.452606 C 877.771362 262.091949 883.30481 263.587128 887.642029 268.723755 M 877.562561 272.803192 C 879.426575 272.483612 881.560791 273.477783 883.161072 271.734344 C 880.197876 266.806519 875.687988 266.788208 872.698853 271.642303 C 873.69635 273.247192 875.341431 272.619965 877.562561 272.803192 z" stroke-linecap="round" />
</g>
<g transform="matrix(1 0 0 1 828.19 622.99)"  >
<path style="stroke: none; stroke-width: 1; stroke-dasharray: none; stroke-linecap: butt; stroke-dashoffset: 0; stroke-linejoin: miter; stroke-miterlimit: 4; fill: rgb(0,0,0); fill-rule: nonzero; opacity: 1;" vector-effect="non-scaling-stroke"  transform=" translate(-771.92, -274.99)" d="M 770.576172 277.237244 C 769.05426 277.395874 767.791077 276.96405 766.573853 278.626923 C 769.131836 282.671814 772.898865 282.28479 776.757629 281.149384 C 778.452148 280.650787 780.119263 279.891083 780.895508 282.101929 C 781.552368 283.972778 779.82605 284.687775 778.564087 285.407928 C 774.595215 287.672974 766.941284 286.568542 763.652893 283.318146 C 760.281677 279.985962 759.497437 273.257294 761.973328 268.906586 C 764.455444 264.544678 769.565186 262.519897 774.897461 263.731354 C 777.458862 264.313263 779.512512 265.695648 780.966309 267.799408 C 782.591309 270.150757 784.140442 272.872345 782.816223 275.677551 C 781.582703 278.29068 778.66333 276.948029 776.477539 277.183197 C 774.669617 277.377686 772.824646 277.227936 770.576172 277.237244 M 777.079041 270.960693 C 772.889832 266.734375 768.826111 267.147186 766.256775 272.396027 C 770.020325 272.58783 773.635681 273.784546 777.079041 270.960693 z" stroke-linecap="round" />
</g>
<g transform="matrix(1 0 0 1 736.58 623.06)"  >
<path style="stroke: none; stroke-width: 1; stroke-dasharray: none; stroke-linecap: butt; stroke-dashoffset: 0; stroke-linejoin: miter; stroke-miterlimit: 4; fill: rgb(0,0,0); fill-rule: nonzero; opacity: 1;" vector-effect="non-scaling-stroke"  transform=" translate(-680.31, -275.06)" d="M 674.981689 285.351532 C 669.014221 280.78006 667.467957 275.671387 670.022522 269.956726 C 672.211792 265.059204 677.054077 262.71167 682.86145 263.671814 C 686.039001 264.197174 688.375732 265.965881 690.049011 268.585114 C 691.422546 270.735107 692.378357 273.31369 691.353943 275.669586 C 690.285217 278.127563 687.531921 277.062897 685.490784 277.158325 C 682.073181 277.318054 678.642761 277.201935 674.487549 277.201935 C 677.116516 282.540802 680.871521 282.213867 684.603333 281.400177 C 686.504272 280.985687 688.785461 279.316498 689.468445 282.29126 C 690.010254 284.651459 687.455505 285.578247 685.604919 286.061066 C 682.182861 286.953857 678.689697 286.939423 674.981689 285.351532 M 678.908691 272.795258 C 681.258911 272.573303 683.759766 273.351685 686.069824 272.006042 C 682.677551 266.701965 678.242859 266.710449 675.065491 271.78183 C 675.756287 273.107574 677.042664 272.642944 678.908691 272.795258 z" stroke-linecap="round" />
</g>
<g transform="matrix(1 0 0 1 467.48 622.93)"  >
<path style="stroke: none; stroke-width: 1; stroke-dasharray: none; stroke-linecap: butt; stroke-dashoffset: 0; stroke-linejoin: miter; stroke-miterlimit: 4; fill: rgb(0,0,0); fill-rule: nonzero; opacity: 1;" vector-effect="non-scaling-stroke"  transform=" translate(-411.21, -274.93)" d="M 414.522858 285.867981 C 411.85318 286.525024 409.523041 286.638824 407.202454 286.287933 C 403.617188 285.745789 401.313629 283.497345 401.146881 280.012207 C 400.989655 276.7258 402.934204 274.354187 406.3862 273.700287 C 409.2883 273.150574 412.211578 272.71283 415.359497 272.18634 C 415.389893 268.808197 413.326996 268.230804 410.849274 268.122925 C 408.807434 268.034027 406.922852 268.65094 405.036774 269.354614 C 403.658905 269.868683 402.838043 269.099518 402.369293 267.847656 C 401.945953 266.717194 402.383698 265.906464 403.350525 265.340515 C 407.358002 262.994751 411.673676 262.871124 415.880035 264.310394 C 419.59964 265.583069 421.046783 268.824799 421.209351 272.597717 C 421.316803 275.092041 421.284546 277.593689 421.269287 280.091766 C 421.230194 286.488251 421.220001 286.48819 414.522858 285.867981 M 411.195221 282.586273 C 413.423126 281.90802 416.256805 281.097473 415.120026 278.223083 C 414.220123 275.947693 411.364105 277.063324 409.321228 277.229614 C 407.738312 277.35849 406.290375 278.025482 406.472992 279.901855 C 406.698181 282.215515 408.556458 282.545044 411.195221 282.586273 z" stroke-linecap="round" />
</g>
<g transform="matrix(1 0 0 1 883.41 623.01)"  >
<path style="stroke: none; stroke-width: 1; stroke-dasharray: none; stroke-linecap: butt; stroke-dashoffset: 0; stroke-linejoin: miter; stroke-miterlimit: 4; fill: rgb(0,0,0); fill-rule: nonzero; opacity: 1;" vector-effect="non-scaling-stroke"  transform=" translate(-827.14, -275.01)" d="M 820.679443 285.535339 C 817.897461 283.560455 816.286499 281.446533 817.28949 278.168549 C 818.25177 275.023621 820.689087 274.032196 823.592834 273.273529 C 826.106018 272.616882 828.893005 273.385864 831.554138 271.78479 C 829.991333 266.822113 826.275208 268.140656 823.064087 268.571686 C 821.272095 268.812195 819.049805 270.925018 818.253723 267.700684 C 817.559326 264.888031 820.415894 264.448456 822.085388 264.139496 C 830.976807 262.493958 837.143066 263.841095 837.263855 275.173401 C 837.374268 285.532501 837.444275 285.544037 827.39032 286.36142 C 825.237671 286.536438 823.071411 286.621796 820.679443 285.535339 M 828.522217 282.130829 C 830.133911 280.972565 833.181702 279.907593 830.472046 277.574249 C 828.661133 276.01474 825.748596 276.77832 823.457581 277.844421 C 822.496399 278.291687 822.084595 279.365723 822.474976 280.363892 C 823.483826 282.943512 825.654236 282.754028 828.522217 282.130829 z" stroke-linecap="round" />
</g>
<g transform="matrix(1 0 0 1 411.67 622.91)"  >
<path style="stroke: none; stroke-width: 1; stroke-dasharray: none; stroke-linecap: butt; stroke-dashoffset: 0; stroke-linejoin: miter; stroke-miterlimit: 4; fill: rgb(0,0,0); fill-rule: nonzero; opacity: 1;" vector-effect="non-scaling-stroke"  transform=" translate(-355.4, -274.91)" d="M 367.105042 271.616394 C 367.649445 281.974426 364.207611 286.372498 355.90033 286.464172 C 349.347412 286.536499 345.198395 283.450836 343.910278 277.547089 C 342.731476 272.14444 345.542969 266.603638 350.575409 264.411591 C 356.013733 262.042725 362.354431 263.752258 365.675781 268.540131 C 366.236694 269.348694 366.571136 270.314362 367.105042 271.616394 M 358.536957 268.639038 C 357.564392 268.464935 356.589081 268.128693 355.61969 268.144958 C 351.527832 268.213379 349.054871 270.914307 349.101654 275.228027 C 349.143158 279.057556 350.838409 281.554382 354.881287 281.943115 C 358.812225 282.321106 362.173248 279.677094 362.533966 275.810242 C 362.802094 272.936249 361.495178 270.703278 358.536957 268.639038 z" stroke-linecap="round" />
</g>
<g transform="matrix(1 0 0 1 685.82 622.92)"  >
<path style="stroke: none; stroke-width: 1; stroke-dasharray: none; stroke-linecap: butt; stroke-dashoffset: 0; stroke-linejoin: miter; stroke-miterlimit: 4; fill: rgb(0,0,0); fill-rule: nonzero; opacity: 1;" vector-effect="non-scaling-stroke"  transform=" translate(-629.55, -274.92)" d="M 637.381592 286.16864 C 634.316772 285.220734 631.734558 286.291229 629.125183 286.449066 C 623.582825 286.784241 620.15387 284.615662 619.702637 280.510529 C 619.245117 276.347809 621.438416 274.149933 627.261475 273.149231 C 629.367615 272.787323 631.521484 272.703583 634.222656 272.436707 C 633.601807 268.109497 630.749146 267.925293 627.737244 268.229065 C 626.273315 268.37677 624.851501 268.944855 623.411255 269.324646 C 622.290649 269.620087 621.437927 269.259552 620.950989 268.216949 C 620.375916 266.985626 620.611511 265.893066 621.842896 265.231628 C 625.888855 263.058441 630.262756 262.813843 634.411194 264.335327 C 638.278503 265.753723 639.788452 269.202148 639.293335 273.260193 C 638.771118 277.540955 640.887878 282.13324 637.381592 286.16864 M 624.780396 278.761688 C 624.18866 281.808472 626.221924 282.515991 628.497009 282.587311 C 631.567566 282.683563 633.707947 281.348114 634.389343 277.839478 C 631.04187 276.731628 628.105103 276.500427 624.780396 278.761688 z" stroke-linecap="round" />
</g>
<g transform="matrix(1 0 0 1 347.5 622.98)"  >
<path style="stroke: none; stroke-width: 1; stroke-dasharray: none; stroke-linecap: butt; stroke-dashoffset: 0; stroke-linejoin: miter; stroke-miterlimit: 4; fill: rgb(0,0,0); fill-rule: nonzero; opacity: 1;" vector-effect="non-scaling-stroke"  transform=" translate(-291.23, -274.98)" d="M 302.315979 276.13446 C 302.311951 278.591644 302.318481 280.584473 302.297699 282.577026 C 302.278107 284.457733 302.300934 286.467712 299.61087 286.378021 C 296.9198 286.288361 297.145264 284.136505 297.081024 282.355896 C 296.97934 279.536621 297.036285 276.711975 296.968079 273.890991 C 296.883972 270.412659 295.444336 268.105652 291.602875 268.204926 C 287.858032 268.301758 285.716248 270.362793 285.41452 274.024933 C 285.169708 276.996002 285.316345 279.99881 285.273926 282.987305 C 285.248169 284.802521 284.889618 286.371857 282.536774 286.203583 C 280.387817 286.049957 280.49472 284.47644 280.466522 282.935638 C 280.372345 277.794464 280.169952 272.654266 280.147888 267.513092 C 280.133881 264.252167 281.674042 262.815338 284.900513 264.300568 C 285.946075 264.78183 286.757324 264.49057 287.734375 264.277191 C 298.026245 262.029938 301.944061 265.109924 302.315979 276.13446 z" stroke-linecap="round" />
</g>
<g transform="matrix(1 0 0 1 380.28 622.81)"  >
<path style="stroke: none; stroke-width: 1; stroke-dasharray: none; stroke-linecap: butt; stroke-dashoffset: 0; stroke-linejoin: miter; stroke-miterlimit: 4; fill: rgb(0,0,0); fill-rule: nonzero; opacity: 1;" vector-effect="non-scaling-stroke"  transform=" translate(-324.01, -274.81)" d="M 321.778259 268.618439 C 318.993439 270.166687 318.127502 272.335907 318.185608 275.042297 C 318.239044 277.53064 318.195312 280.0224 318.137604 282.511353 C 318.093323 284.421844 317.908447 286.327637 315.267761 286.209534 C 312.930817 286.105072 312.816986 284.321594 312.803955 282.627777 C 312.764282 277.482361 312.793762 272.336395 312.792877 267.190643 C 312.792419 264.363922 314.183807 262.967133 316.851624 264.112427 C 318.64035 264.880341 319.972626 264.297485 321.576782 263.934052 C 329.312042 262.181671 333.22464 264.793152 334.785217 272.469971 C 335.489929 275.936401 335.17453 279.414154 335.125153 282.889435 C 335.099976 284.658936 334.672607 286.3013 332.378265 286.210144 C 330.102264 286.11972 329.858124 284.41391 329.813599 282.680054 C 329.749695 280.191376 329.790131 277.700043 329.72937 275.211243 C 329.584076 269.258209 328.23877 268.076263 321.778259 268.618439 z" stroke-linecap="round" />
</g>
<g transform="matrix(1 0 0 1 627.57 623.22)"  >
<path style="stroke: none; stroke-width: 1; stroke-dasharray: none; stroke-linecap: butt; stroke-dashoffset: 0; stroke-linejoin: miter; stroke-miterlimit: 4; fill: rgb(0,0,0); fill-rule: nonzero; opacity: 1;" vector-effect="non-scaling-stroke"  transform=" translate(-571.3, -275.23)" d="M 564.040161 264.115112 C 566.185059 267.934723 565.055847 271.808807 565.2948 275.569855 C 565.519775 279.111908 566.421631 281.953827 570.630554 281.86026 C 574.575012 281.772552 576.766541 279.700104 576.79364 275.601501 C 576.812256 272.77594 576.83844 269.949249 576.938965 267.125824 C 577.002625 265.336823 577.463135 263.7677 579.760254 263.859497 C 581.762146 263.939453 582.193726 265.323792 582.200562 266.944336 C 582.223755 272.429749 582.217712 277.915344 582.192505 283.400757 C 582.185913 284.845795 581.411011 286.713684 580.095398 286.098206 C 576.098938 284.228577 572.52124 287.175598 568.635437 286.489929 C 563.815796 285.639465 561.046448 283.291412 560.718567 278.458923 C 560.459961 274.648376 560.479553 270.818726 560.386292 266.997284 C 560.332092 264.778992 561.117676 263.431427 564.040161 264.115112 z" stroke-linecap="round" />
</g>
<g transform="matrix(1 0 0 1 657.59 622.83)"  >
<path style="stroke: none; stroke-width: 1; stroke-dasharray: none; stroke-linecap: butt; stroke-dashoffset: 0; stroke-linejoin: miter; stroke-miterlimit: 4; fill: rgb(0,0,0); fill-rule: nonzero; opacity: 1;" vector-effect="non-scaling-stroke"  transform=" translate(-601.32, -274.83)" d="M 606.140564 286.343201 C 594.325745 286.87915 587.769531 278.932098 592.141418 269.889313 C 595.092896 263.784302 603.461487 261.373596 609.239929 265.011566 C 610.612549 265.875732 612.523743 266.857635 611.636169 268.796051 C 610.618835 271.017822 608.888977 270.205658 607.040771 269.309326 C 601.921631 266.826721 597.36731 268.640381 596.383118 273.30072 C 595.115662 279.302155 599.674438 283.326355 605.642029 281.489655 C 607.648315 280.872162 610.408081 278.087891 611.495972 281.37912 C 612.457947 284.289398 609.184082 285.58963 606.140564 286.343201 z" stroke-linecap="round" />
</g>
<g transform="matrix(1 0 0 1 856.89 623.2)"  >
<path style="stroke: none; stroke-width: 1; stroke-dasharray: none; stroke-linecap: butt; stroke-dashoffset: 0; stroke-linejoin: miter; stroke-miterlimit: 4; fill: rgb(0,0,0); fill-rule: nonzero; opacity: 1;" vector-effect="non-scaling-stroke"  transform=" translate(-800.61, -275.2)" d="M 795.085815 280.838745 C 792.767334 275.191772 789.773865 270.20224 789.228882 264.087616 C 797.036926 265.776031 795.524597 274.575012 800.064758 278.696869 C 804.849426 274.836884 802.933228 265.686615 810.202454 263.651733 C 810.801941 264.009674 811.401428 264.367615 812.000916 264.725555 C 808.972168 271.616241 806.232483 278.658081 802.75177 285.312408 C 801.593384 287.526855 798.622253 287.068481 796.934814 284.778473 C 796.164978 283.733795 795.800354 282.390503 795.085815 280.838745 z" stroke-linecap="round" />
</g>
<g transform="matrix(1 0 0 1 440.65 623.28)"  >
<path style="stroke: none; stroke-width: 1; stroke-dasharray: none; stroke-linecap: butt; stroke-dashoffset: 0; stroke-linejoin: miter; stroke-miterlimit: 4; fill: rgb(0,0,0); fill-rule: nonzero; opacity: 1;" vector-effect="non-scaling-stroke"  transform=" translate(-384.37, -275.28)" d="M 385.941772 276.476776 C 387.457825 272.984924 388.844482 269.79129 390.210785 266.588959 C 391.181183 264.314575 392.580688 263.006409 395.771942 264.488861 C 393.463593 271.634766 390.552307 278.58194 386.854034 285.108734 C 385.575897 287.364441 382.360077 287.218933 381.102325 284.674927 C 377.8992 278.196014 375.166077 271.48468 372.975159 264.393555 C 381.421692 265.424072 379.37088 274.803528 384.562012 278.653107 C 384.954285 278.058624 385.378967 277.414978 385.941772 276.476776 z" stroke-linecap="round" />
</g>
<g transform="matrix(1 0 0 1 909.3 620.8)"  >
<path style="stroke: none; stroke-width: 1; stroke-dasharray: none; stroke-linecap: butt; stroke-dashoffset: 0; stroke-linejoin: miter; stroke-miterlimit: 4; fill: rgb(0,0,0); fill-rule: nonzero; opacity: 1;" vector-effect="non-scaling-stroke"  transform=" translate(-853.03, -272.81)" d="M 848.862915 259.586731 C 850.814941 258.60141 852.688599 258.342712 853.078735 260.583496 C 853.532898 263.192078 855.005981 263.773163 857.233276 263.792938 C 858.341553 263.802765 859.144226 264.361664 859.239563 265.566101 C 859.358093 267.063049 858.381775 267.574097 857.123962 267.819061 C 850.004395 269.20578 854.154114 274.743835 853.479553 278.351471 C 852.903137 281.433868 855.055237 282.789612 858.234314 282.145874 C 859.421265 281.905518 860.121765 282.682465 860.318665 283.783356 C 860.572815 285.204651 859.718933 285.836609 858.473572 286.272583 C 853.956055 287.853973 849.500732 285.407135 848.689148 280.66272 C 848.270874 278.217804 848.241699 275.705719 848.050354 273.222931 C 847.986511 272.394867 848.306702 271.206543 847.870728 270.789124 C 843.703857 266.798737 846.364502 263.381378 848.862915 259.586731 z" stroke-linecap="round" />
</g>
<g transform="matrix(1 0 0 1 711.2 620.59)"  >
<path style="stroke: none; stroke-width: 1; stroke-dasharray: none; stroke-linecap: butt; stroke-dashoffset: 0; stroke-linejoin: miter; stroke-miterlimit: 4; fill: rgb(0,0,0); fill-rule: nonzero; opacity: 1;" vector-effect="non-scaling-stroke"  transform=" translate(-654.93, -272.59)" d="M 650.693237 274.158783 C 650.675415 271.255493 651.138123 268.684235 648.090759 267.36142 C 646.874817 266.833618 646.442322 265.131897 647.59491 264.511261 C 649.69635 263.379639 650.256531 261.440765 651.418213 259.712921 C 652.52301 258.069611 654.673096 258.549438 655.200928 260.610443 C 655.824097 263.043823 657.141113 263.828491 659.439697 263.798706 C 660.665039 263.782806 661.795593 264.240723 661.789551 265.773163 C 661.784729 267.006165 660.754822 267.293304 659.843079 267.724915 C 656.358459 269.374329 654.405273 278.234558 656.839844 281.244324 C 657.653564 282.250214 658.707214 282.566345 659.95697 282.246765 C 661.486328 281.855621 662.78949 282.256775 662.925415 283.91803 C 663.092712 285.962769 661.399658 286.131989 659.861206 286.331848 C 654.35907 287.046753 651.203186 284.578949 650.749756 279.091675 C 650.626892 277.604736 650.706848 276.101044 650.693237 274.158783 z" stroke-linecap="round" />
</g>
<g transform="matrix(1 0 0 1 492.88 620.84)"  >
<path style="stroke: none; stroke-width: 1; stroke-dasharray: none; stroke-linecap: butt; stroke-dashoffset: 0; stroke-linejoin: miter; stroke-miterlimit: 4; fill: rgb(0,0,0); fill-rule: nonzero; opacity: 1;" vector-effect="non-scaling-stroke"  transform=" translate(-436.6, -272.84)" d="M 435.816803 259.049194 C 437.615753 261.113953 437.726013 264.469513 441.523743 263.811737 C 442.598633 263.625549 443.371765 264.427582 443.394714 265.648987 C 443.417419 266.857147 442.684998 267.414459 441.618896 267.698029 C 439.937897 268.145142 437.553223 267.811615 437.457977 270.370117 C 437.329224 273.827576 436.618408 277.389008 437.977692 280.725983 C 438.601532 282.257477 440.150696 282.636322 441.811462 282.249084 C 443.15683 281.935425 444.172241 282.406799 444.392761 283.840698 C 444.66687 285.623322 443.400787 286.024994 441.994293 286.347565 C 436.590515 287.586792 432.875885 284.723816 432.678284 279.054535 C 432.597076 276.724915 432.662354 274.390533 432.629303 272.058746 C 432.612885 270.903046 432.723663 269.683807 431.874847 268.732635 C 430.854156 267.588959 427.763672 266.324463 429.112091 265.445862 C 431.836487 263.670685 431.605865 259.30542 435.816803 259.049194 z" stroke-linecap="round" />
</g>
<g transform="matrix(1 0 0 1 322.74 619.5)"  >
<path style="stroke: none; stroke-width: 1; stroke-dasharray: none; stroke-linecap: butt; stroke-dashoffset: 0; stroke-linejoin: miter; stroke-miterlimit: 4; fill: rgb(0,0,0); fill-rule: nonzero; opacity: 1;" vector-effect="non-scaling-stroke"  transform=" translate(-266.47, -271.5)" d="M 269.115906 259.364777 C 269.166473 267.124237 269.207428 274.42038 269.14209 281.715546 C 269.125153 283.610046 269.520782 286.090057 266.550568 286.170502 C 263.558716 286.251526 263.814575 283.811951 263.798553 281.877228 C 263.739441 274.747711 263.751526 267.617401 263.782837 260.487579 C 263.789337 259.011536 263.727661 257.32074 265.685089 256.925385 C 267.301056 256.598969 268.67218 256.99115 269.115906 259.364777 z" stroke-linecap="round" />
</g>
<g transform="matrix(1 0 0 1 805.29 618.55)"  >
<path style="stroke: none; stroke-width: 1; stroke-dasharray: none; stroke-linecap: butt; stroke-dashoffset: 0; stroke-linejoin: miter; stroke-miterlimit: 4; fill: rgb(0,0,0); fill-rule: nonzero; opacity: 1;" vector-effect="non-scaling-stroke"  transform=" translate(-749.01, -270.55)" d="M 751.335693 269.006287 C 751.32428 273.981293 751.341248 278.459045 751.284424 282.935852 C 751.265442 284.432343 751.228882 286.061218 749.067444 286.100128 C 746.922485 286.138794 746.733643 284.56662 746.72644 283.033264 C 746.687317 274.742096 746.685242 266.450592 746.711304 258.159332 C 746.716064 256.648315 746.80188 255.036789 748.94104 254.997223 C 751.069763 254.957825 751.25885 256.513916 751.283508 258.061798 C 751.338867 261.543488 751.32251 265.026306 751.335693 269.006287 z" stroke-linecap="round" />
</g>
<g transform="matrix(1 0 0 1 540.04 631.42)"  >
<path style="stroke: none; stroke-width: 1; stroke-dasharray: none; stroke-linecap: butt; stroke-dashoffset: 0; stroke-linejoin: miter; stroke-miterlimit: 4; fill: rgb(0,0,0); fill-rule: nonzero; opacity: 1;" vector-effect="non-scaling-stroke"  transform=" translate(-483.76, -283.42)" d="M 483.033691 286.192261 C 480.773102 285.293579 480.380493 283.820221 481.145508 282.106293 C 481.761688 280.725677 483.085205 280.469543 484.479889 280.732697 C 485.988281 281.017334 486.784729 282.079681 486.736298 283.500031 C 486.667999 285.503143 485.327026 286.286713 483.033691 286.192261 z" stroke-linecap="round" />
</g>
<g transform="matrix(1 0 0 1 758.25 631.53)"  >
<path style="stroke: none; stroke-width: 1; stroke-dasharray: none; stroke-linecap: butt; stroke-dashoffset: 0; stroke-linejoin: miter; stroke-miterlimit: 4; fill: rgb(0,0,0); fill-rule: nonzero; opacity: 1;" vector-effect="non-scaling-stroke"  transform=" translate(-701.98, -283.54)" d="M 705.052307 283.914398 C 703.427307 286.912598 701.42749 287.057037 699.517944 284.917419 C 698.331726 283.588348 698.985168 281.964447 700.441833 281.242035 C 702.755554 280.094543 704.543823 280.702515 705.052307 283.914398 z" stroke-linecap="round" />
</g>
<g transform="matrix(1.52 0 0 1.52 244.74 462.58)"  >
<g style="" vector-effect="non-scaling-stroke"   >
		<g transform="matrix(0.13 0 0 -0.13 0 -17.47)"  >
<path style="stroke: none; stroke-width: 1; stroke-dasharray: none; stroke-linecap: butt; stroke-dashoffset: 0; stroke-linejoin: miter; stroke-miterlimit: 4; fill: rgb(0,0,0); fill-rule: nonzero; opacity: 1;" vector-effect="non-scaling-stroke"  transform=" translate(-380, -449.01)" d="M 193 517 C 92 483 10 453 10 449 C 10 446 36 435 68 426 L 127 408 L 255 454 C 325 480 385 498 388 496 C 404 480 369 458 281 429 C 225 411 184 393 188 389 C 192 386 237 369 287 352 L 380 322 L 565 383 C 667 417 750 447 750 450 C 750 454 443 560 385 576 C 380 577 293 551 193 517 z" stroke-linecap="round" />
</g>
		<g transform="matrix(0.13 0 0 -0.13 -36.17 13.07)"  >
<path style="stroke: none; stroke-width: 1; stroke-dasharray: none; stroke-linecap: butt; stroke-dashoffset: 0; stroke-linejoin: miter; stroke-miterlimit: 4; fill: rgb(0,0,0); fill-rule: nonzero; opacity: 1;" vector-effect="non-scaling-stroke"  transform=" translate(-108.76, -220)" d="M 90 318 C 90 274 85 251 73 238 C 59 222 58 215 69 185 C 78 160 78 141 71 113 C 56 59 55 60 105 60 C 155 60 158 67 140 129 C 133 154 134 167 146 185 C 158 203 159 213 150 229 C 144 241 135 250 130 250 C 124 250 120 279 120 315 C 120 366 117 380 105 380 C 93 380 90 366 90 318 z" stroke-linecap="round" />
</g>
		<g transform="matrix(0.13 0 0 -0.13 0 8.46)"  >
<path style="stroke: none; stroke-width: 1; stroke-dasharray: none; stroke-linecap: butt; stroke-dashoffset: 0; stroke-linejoin: miter; stroke-miterlimit: 4; fill: rgb(0,0,0); fill-rule: nonzero; opacity: 1;" vector-effect="non-scaling-stroke"  transform=" translate(-380, -254.55)" d="M 190 288 C 190 212 202 197 276 174 C 366 147 504 163 551 206 C 566 219 570 237 570 288 C 570 335 567 351 558 348 C 551 345 508 331 463 316 L 380 288 L 298 316 C 252 331 209 345 203 348 C 193 351 190 335 190 288 z" stroke-linecap="round" />
</g>
</g>
</g>
<g transform="matrix(0.22 0 0 0.22 243.67 540)" id="68c46468-802a-49f9-86a1-bb7866b12db6"  >
<path style="stroke: rgb(0,0,0); stroke-width: 0; stroke-dasharray: none; stroke-linecap: butt; stroke-dashoffset: 0; stroke-linejoin: miter; stroke-miterlimit: 4; fill: rgb(0,0,0); fill-rule: nonzero; opacity: 1;" vector-effect="non-scaling-stroke"  transform=" translate(-260.25, -261.12)" d="M 190 511 C 144 496 105 472 74 438 C 20 381 5 343 5 260 C 5 177 20 139 74 82 C 127 25 175 5 260 5 C 317 5 344 10 375 27 C 422 52 470 101 496 150 C 522 199 522 321 496 370 C 470 419 422 468 375 492 C 332 514 231 525 190 511 z M 240 440 C 240 404 238 400 215 400 C 201 400 190 406 190 414 C 190 427 227 480 236 480 C 238 480 240 462 240 440 z M 330 414 C 330 406 320 400 305 400 C 282 400 280 404 280 443 L 281 485 L 305 457 C 319 442 330 422 330 414 z M 160 440 C 148 419 135 414 125 429 C 122 435 128 443 137 449 C 164 465 172 462 160 440 z M 381 449 C 392 444 398 435 395 429 C 385 414 372 418 360 440 C 348 463 353 465 381 449 z M 119 390 C 135 382 136 375 127 330 C 117 280 117 280 79 280 C 32 280 28 298 60 360 C 81 402 90 406 119 390 z M 460 360 C 492 298 488 280 441 280 C 403 280 403 280 393 330 C 384 373 385 382 399 390 C 427 407 439 401 460 360 z M 238 323 L 241 280 L 201 280 C 162 280 160 282 160 309 C 160 359 169 371 204 368 C 233 365 235 362 238 323 z M 354 354 C 357 345 360 325 360 309 C 360 282 358 280 320 280 C 280 280 280 280 280 318 C 280 339 283 360 287 363 C 300 376 348 370 354 354 z M 127 190 C 136 145 135 138 119 130 C 90 114 81 118 60 160 C 28 222 32 240 79 240 C 117 240 117 240 127 190 z M 238 198 C 235 159 232 155 206 152 C 172 148 160 162 160 208 C 160 239 161 240 201 240 L 241 240 L 238 198 z M 360 208 C 360 162 348 148 314 152 C 288 155 285 159 282 198 L 279 240 L 319 240 C 359 240 360 239 360 208 z M 480 220 C 480 193 443 120 429 120 C 423 120 411 124 401 130 C 385 138 384 146 391 182 C 395 206 399 228 400 233 C 400 237 418 240 440 240 C 474 240 480 237 480 220 z M 240 78 L 239 35 L 215 63 C 183 99 183 120 215 120 C 238 120 240 116 240 78 z M 330 106 C 330 98 319 78 305 63 L 281 35 L 280 78 C 280 116 282 120 305 120 C 320 120 330 114 330 106 z M 160 80 C 172 57 167 55 139 71 C 128 76 122 85 125 91 C 135 106 148 102 160 80 z M 395 91 C 398 85 392 76 381 71 C 353 55 348 57 360 80 C 372 102 385 106 395 91 z" stroke-linecap="round" />
</g>
</svg>