<?xml version="1.0" encoding="UTF-8" standalone="no" ?>
<!DOCTYPE svg PUBLIC "-//W3C//DTD SVG 1.1//EN" "http://www.w3.org/Graphics/SVG/1.1/DTD/svg11.dtd">
<svg xmlns="http://www.w3.org/2000/svg" xmlns:xlink="http://www.w3.org/1999/xlink" version="1.1" width="1080" height="1080" viewBox="0 0 1080 1080" xml:space="preserve">
<desc>Created with Fabric.js 5.2.4</desc>
<defs>
</defs>
<rect x="0" y="0" width="100%" height="100%" fill="transparent"></rect>
<g transform="matrix(1 0 0 1 540 540)" id="b669ded2-8e7b-4e63-a186-2fefa39c5324"  >
<rect style="stroke: none; stroke-width: 1; stroke-dasharray: none; stroke-linecap: butt; stroke-dashoffset: 0; stroke-linejoin: miter; stroke-miterlimit: 4; fill: rgb(255,255,255); fill-rule: nonzero; opacity: 1; visibility: hidden;" vector-effect="non-scaling-stroke"  x="-540" y="-540" rx="0" ry="0" width="1080" height="1080" />
</g>
<g transform="matrix(1 0 0 1 540 540)" id="ffc333e3-c3f8-442d-b2e3-7807496c62db"  >
</g>
<g transform="matrix(1.52 0 0 1.52 244.74 462.58)"  >
<g style="" vector-effect="non-scaling-stroke"   >
		<g transform="matrix(0.13 0 0 -0.13 0 -17.47)"  >
<path style="stroke: none; stroke-width: 1; stroke-dasharray: none; stroke-linecap: butt; stroke-dashoffset: 0; stroke-linejoin: miter; stroke-miterlimit: 4; fill: rgb(0,0,0); fill-rule: nonzero; opacity: 1;" vector-effect="non-scaling-stroke"  transform=" translate(-380, -449.01)" d="M 193 517 C 92 483 10 453 10 449 C 10 446 36 435 68 426 L 127 408 L 255 454 C 325 480 385 498 388 496 C 404 480 369 458 281 429 C 225 411 184 393 188 389 C 192 386 237 369 287 352 L 380 322 L 565 383 C 667 417 750 447 750 450 C 750 454 443 560 385 576 C 380 577 293 551 193 517 z" stroke-linecap="round" />
</g>
		<g transform="matrix(0.13 0 0 -0.13 -36.17 13.07)"  >
<path style="stroke: none; stroke-width: 1; stroke-dasharray: none; stroke-linecap: butt; stroke-dashoffset: 0; stroke-linejoin: miter; stroke-miterlimit: 4; fill: rgb(0,0,0); fill-rule: nonzero; opacity: 1;" vector-effect="non-scaling-stroke"  transform=" translate(-108.76, -220)" d="M 90 318 C 90 274 85 251 73 238 C 59 222 58 215 69 185 C 78 160 78 141 71 113 C 56 59 55 60 105 60 C 155 60 158 67 140 129 C 133 154 134 167 146 185 C 158 203 159 213 150 229 C 144 241 135 250 130 250 C 124 250 120 279 120 315 C 120 366 117 380 105 380 C 93 380 90 366 90 318 z" stroke-linecap="round" />
</g>
		<g transform="matrix(0.13 0 0 -0.13 0 8.46)"  >
<path style="stroke: none; stroke-width: 1; stroke-dasharray: none; stroke-linecap: butt; stroke-dashoffset: 0; stroke-linejoin: miter; stroke-miterlimit: 4; fill: rgb(0,0,0); fill-rule: nonzero; opacity: 1;" vector-effect="non-scaling-stroke"  transform=" translate(-380, -254.55)" d="M 190 288 C 190 212 202 197 276 174 C 366 147 504 163 551 206 C 566 219 570 237 570 288 C 570 335 567 351 558 348 C 551 345 508 331 463 316 L 380 288 L 298 316 C 252 331 209 345 203 348 C 193 351 190 335 190 288 z" stroke-linecap="round" />
</g>
</g>
</g>
<g transform="matrix(0.22 0 0 0.22 243.67 540)" id="68c46468-802a-49f9-86a1-bb7866b12db6"  >
<path style="stroke: rgb(0,0,0); stroke-width: 0; stroke-dasharray: none; stroke-linecap: butt; stroke-dashoffset: 0; stroke-linejoin: miter; stroke-miterlimit: 4; fill: rgb(0,0,0); fill-rule: nonzero; opacity: 1;" vector-effect="non-scaling-stroke"  transform=" translate(-260.25, -261.12)" d="M 190 511 C 144 496 105 472 74 438 C 20 381 5 343 5 260 C 5 177 20 139 74 82 C 127 25 175 5 260 5 C 317 5 344 10 375 27 C 422 52 470 101 496 150 C 522 199 522 321 496 370 C 470 419 422 468 375 492 C 332 514 231 525 190 511 z M 240 440 C 240 404 238 400 215 400 C 201 400 190 406 190 414 C 190 427 227 480 236 480 C 238 480 240 462 240 440 z M 330 414 C 330 406 320 400 305 400 C 282 400 280 404 280 443 L 281 485 L 305 457 C 319 442 330 422 330 414 z M 160 440 C 148 419 135 414 125 429 C 122 435 128 443 137 449 C 164 465 172 462 160 440 z M 381 449 C 392 444 398 435 395 429 C 385 414 372 418 360 440 C 348 463 353 465 381 449 z M 119 390 C 135 382 136 375 127 330 C 117 280 117 280 79 280 C 32 280 28 298 60 360 C 81 402 90 406 119 390 z M 460 360 C 492 298 488 280 441 280 C 403 280 403 280 393 330 C 384 373 385 382 399 390 C 427 407 439 401 460 360 z M 238 323 L 241 280 L 201 280 C 162 280 160 282 160 309 C 160 359 169 371 204 368 C 233 365 235 362 238 323 z M 354 354 C 357 345 360 325 360 309 C 360 282 358 280 320 280 C 280 280 280 280 280 318 C 280 339 283 360 287 363 C 300 376 348 370 354 354 z M 127 190 C 136 145 135 138 119 130 C 90 114 81 118 60 160 C 28 222 32 240 79 240 C 117 240 117 240 127 190 z M 238 198 C 235 159 232 155 206 152 C 172 148 160 162 160 208 C 160 239 161 240 201 240 L 241 240 L 238 198 z M 360 208 C 360 162 348 148 314 152 C 288 155 285 159 282 198 L 279 240 L 319 240 C 359 240 360 239 360 208 z M 480 220 C 480 193 443 120 429 120 C 423 120 411 124 401 130 C 385 138 384 146 391 182 C 395 206 399 228 400 233 C 400 237 418 240 440 240 C 474 240 480 237 480 220 z M 240 78 L 239 35 L 215 63 C 183 99 183 120 215 120 C 238 120 240 116 240 78 z M 330 106 C 330 98 319 78 305 63 L 281 35 L 280 78 C 280 116 282 120 305 120 C 320 120 330 114 330 106 z M 160 80 C 172 57 167 55 139 71 C 128 76 122 85 125 91 C 135 106 148 102 160 80 z M 395 91 C 398 85 392 76 381 71 C 353 55 348 57 360 80 C 372 102 385 106 395 91 z" stroke-linecap="round" />
</g>
</svg>